<mxfile host="app.diagrams.net" modified="2023-12-23T07:08:50.820Z" agent="Mozilla/5.0 (Windows NT 10.0; Win64; x64) AppleWebKit/537.36 (KHTML, like Gecko) Chrome/120.0.0.0 Safari/537.36" etag="PyCt_C-Yv8--Pd6wwcNO" version="22.1.11" type="github">
  <diagram name="Page-1" id="I6es0tdqf6y6MNPhUNm0">
    <mxGraphModel dx="922" dy="987" grid="0" gridSize="10" guides="1" tooltips="1" connect="1" arrows="1" fold="1" page="0" pageScale="1" pageWidth="850" pageHeight="1100" math="0" shadow="0">
      <root>
        <mxCell id="0" />
        <mxCell id="1" parent="0" />
        <mxCell id="yhi3mrWlZLorKjFIOSp3-1" value="" style="whiteSpace=wrap;html=1;aspect=fixed;fontSize=16;" vertex="1" parent="1">
          <mxGeometry x="-25" y="-25" width="452" height="452" as="geometry" />
        </mxCell>
        <mxCell id="yhi3mrWlZLorKjFIOSp3-2" value="" style="rounded=0;whiteSpace=wrap;html=1;fontSize=16;" vertex="1" parent="1">
          <mxGeometry x="45.5" y="-3" width="361.5" height="46" as="geometry" />
        </mxCell>
        <mxCell id="yhi3mrWlZLorKjFIOSp3-3" value="" style="rounded=0;whiteSpace=wrap;html=1;fontSize=16;" vertex="1" parent="1">
          <mxGeometry x="45.5" y="357" width="360.5" height="46" as="geometry" />
        </mxCell>
        <mxCell id="yhi3mrWlZLorKjFIOSp3-4" value="" style="whiteSpace=wrap;html=1;aspect=fixed;fontSize=16;" vertex="1" parent="1">
          <mxGeometry x="-11" y="79" width="72" height="72" as="geometry" />
        </mxCell>
        <mxCell id="yhi3mrWlZLorKjFIOSp3-5" value="" style="whiteSpace=wrap;html=1;aspect=fixed;fontSize=16;" vertex="1" parent="1">
          <mxGeometry x="-11" y="255" width="72" height="72" as="geometry" />
        </mxCell>
        <mxCell id="yhi3mrWlZLorKjFIOSp3-6" value="" style="whiteSpace=wrap;html=1;aspect=fixed;fontSize=16;" vertex="1" parent="1">
          <mxGeometry x="-11" y="167" width="72" height="72" as="geometry" />
        </mxCell>
        <mxCell id="yhi3mrWlZLorKjFIOSp3-7" value="" style="rounded=0;whiteSpace=wrap;html=1;fontSize=16;" vertex="1" parent="1">
          <mxGeometry x="84" y="85" width="294" height="60" as="geometry" />
        </mxCell>
        <mxCell id="yhi3mrWlZLorKjFIOSp3-8" value="" style="rounded=0;whiteSpace=wrap;html=1;fontSize=16;" vertex="1" parent="1">
          <mxGeometry x="84" y="173" width="294" height="60" as="geometry" />
        </mxCell>
        <mxCell id="yhi3mrWlZLorKjFIOSp3-9" value="" style="rounded=0;whiteSpace=wrap;html=1;fontSize=16;" vertex="1" parent="1">
          <mxGeometry x="84" y="261" width="294" height="60" as="geometry" />
        </mxCell>
        <mxCell id="yhi3mrWlZLorKjFIOSp3-11" value="" style="rounded=0;whiteSpace=wrap;html=1;fontSize=16;" vertex="1" parent="1">
          <mxGeometry x="158" y="329" width="215" height="20" as="geometry" />
        </mxCell>
      </root>
    </mxGraphModel>
  </diagram>
</mxfile>
